<svg xmlns="http://www.w3.org/2000/svg" viewBox="0 0 512 512">
  <defs>
    <linearGradient id="bg" x1="0%" y1="0%" x2="100%" y2="100%">
      <stop offset="0%" stop-color="#4776E6"/>
      <stop offset="100%" stop-color="#8E54E9"/>
    </linearGradient>
  </defs>
  <circle cx="256" cy="256" r="256" fill="url(#bg)"/>
  <path d="M360 205 L330 145 C326 137 318 132 310 132 L202 132 C194 132 186 137 182 145 L152 205 C140 209 132 220 132 233 L132 295 C132 303 138 309 146 309 L158 309 L158 323 C158 331 164 337 172 337 C180 337 186 331 186 323 L186 309 L326 309 L326 323 C326 331 332 337 340 337 C348 337 354 331 354 323 L354 309 L366 309 C374 309 380 303 380 295 L380 233 C380 220 372 209 360 205 Z M186 255 C177 255 170 248 170 239 C170 230 177 223 186 223 C195 223 202 230 202 239 C202 248 195 255 186 255 Z M326 255 C317 255 310 248 310 239 C310 230 317 223 326 223 C335 223 342 230 342 239 C342 248 335 255 326 255 Z M173 201 L196 155 L316 155 L339 201 L173 201 Z" fill="white"/>
  <circle cx="382" cy="136" r="64" fill="#FF4757"/>
  <path d="M382 82 C360 82 343 99 343 121 C343 150 382 190 382 190 C382 190 421 150 421 121 C421 99 404 82 382 82 Z" fill="white"/>
  <circle cx="382" cy="121" r="18" fill="#FF4757"/>
</svg>
